<svg width="19" height="27" viewBox="0 0 19 27" fill="none" xmlns="http://www.w3.org/2000/svg">
<path d="M11.0029 23.5195C10.571 24.3489 9.39584 24.3815 8.91895 23.5771L1.76562 11.5088C1.29453 10.7139 1.8671 9.70836 2.79101 9.70801L16.2305 9.70801C17.1256 9.70817 17.7016 10.6582 17.2881 11.4521L11.0029 23.5195Z" fill="#210030" stroke="#210030" stroke-width="0.795137"/>
<path d="M9.42676 0.397461C14.2732 0.3977 18.1504 4.0373 18.1504 8.46484C18.1501 12.8922 14.273 16.531 9.42676 16.5312C4.58027 16.5312 0.702433 12.8923 0.702148 8.46484C0.702148 4.03715 4.58009 0.397461 9.42676 0.397461Z" fill="#210030" stroke="#210030" stroke-width="0.795137"/>
<path d="M9.12109 5.47607C11.1128 5.47629 12.6758 6.96804 12.6758 8.74658C12.6757 10.5251 11.1128 12.0169 9.12109 12.0171C7.12916 12.0171 5.56548 10.5252 5.56543 8.74658C5.56543 6.96791 7.12913 5.47607 9.12109 5.47607Z" fill="white" stroke="#210030" stroke-width="0.795137"/>
</svg>
