<svg width="13" height="15" viewBox="0 0 13 15" fill="none" xmlns="http://www.w3.org/2000/svg">
<path d="M1.02489 2.56224H2.56224V4.09958H8.7116V2.56224H10.2489V6.66181H11.2738V2.56224C11.2738 1.99854 10.8126 1.53734 10.2489 1.53734H8.7116V1.02489C8.7116 0.461202 8.2504 0 7.68671 0H3.58713C3.02344 0 2.56224 0.461202 2.56224 1.02489V1.53734H1.02489C0.461202 1.53734 0 1.99854 0 2.56224V13.3236C0 13.8873 0.461202 14.3485 1.02489 14.3485H3.07468V13.3236H1.02489V2.56224ZM3.58713 1.02489H7.68671V3.07468H3.58713V1.02489ZM9.94865 8.19915L9.22405 8.92375L10.5492 10.2489H6.66181C5.53135 10.2489 4.61202 11.1683 4.61202 12.2987C4.61202 13.4292 5.53135 14.3485 6.66181 14.3485H7.68671V13.3236H6.66181C6.0971 13.3236 5.63692 12.864 5.63692 12.2987C5.63692 11.7335 6.0971 11.2738 6.66181 11.2738H10.5492L9.22405 12.599L9.94865 13.3236L12.5109 10.7614L9.94865 8.19915Z" fill="black"/>
</svg>
