<svg width="14" height="14" viewBox="0 0 14 14" fill="none" xmlns="http://www.w3.org/2000/svg">
<circle cx="6.67373" cy="6.67373" r="6.67373" fill="#D9D9D9"/>
<path d="M9.53804 1.32446L9.29692 1.58874C8.75697 2.18309 8.31185 2.44884 7.94134 2.6227C7.57084 2.79619 7.25951 2.84802 6.95369 3.08216C6.62766 3.3321 6.15387 3.81141 5.95429 4.6671C5.52644 4.76046 5.21327 4.92439 4.96627 5.13795C4.72221 5.34893 4.53843 5.58895 4.31201 5.85029C4.31017 5.85323 4.31311 5.85874 4.31201 5.86168C3.98708 6.23513 3.70295 6.63725 3.1516 6.8497L2.92188 6.94159V10.8698H9.92876C10.3305 10.8481 10.6091 10.5698 10.7786 10.2953C10.9477 10.021 11.0414 9.72406 11.0888 9.47999C11.2108 8.85807 11.4332 7.06766 11.4332 7.06766L11.445 7.03348V6.99893C11.4332 6.75046 11.331 6.53947 11.2035 6.34393L11.617 5.11516L12.272 4.12715L12.4558 3.86287L12.2143 3.6449L9.80232 1.55419L9.53804 1.32446ZM9.5612 2.33527L11.4792 4.00107L10.9738 4.74723L10.9396 4.78215L10.9278 4.83949L10.5948 5.82713C10.4209 5.75546 10.2419 5.7051 10.0434 5.71245H10.0203L7.70022 5.72385H7.33265V7.14816C7.28119 7.54881 7.05845 7.70392 6.78131 7.81456C6.68942 7.85168 6.67802 7.83146 6.59752 7.84874V5.71282C6.53724 4.35026 7.02243 3.95807 7.40176 3.66806C7.50651 3.58756 7.81343 3.49457 8.25157 3.2891C8.61766 3.11671 9.07271 2.80759 9.5612 2.33527ZM5.88555 5.49412C5.88408 5.57756 5.85798 5.63637 5.86239 5.72385V8.66437H6.22996C6.22996 8.66437 6.62325 8.65996 7.04559 8.49198C7.46792 8.324 7.97736 7.93071 8.06778 7.24005V6.45898L10.0434 6.44758H10.0548C10.2162 6.43855 10.3746 6.49394 10.4952 6.60158C10.6158 6.70923 10.6888 6.86033 10.6981 7.02172C10.6966 7.0276 10.6797 7.16397 10.6753 7.19411H9.17048V7.92924H10.5834C10.5444 8.21336 10.5088 8.39163 10.4684 8.66437H9.17048V9.3995H10.3537C10.3102 9.57733 10.2405 9.74768 10.1467 9.9049C10.0464 10.0685 9.96001 10.1302 9.88282 10.1346H3.657V7.38928C4.25283 7.07318 4.62333 6.6185 4.86299 6.3443C5.11146 6.0598 5.28201 5.84441 5.44888 5.70106C5.55805 5.6077 5.72897 5.5544 5.88555 5.49412Z" fill="black"/>
</svg>
