<svg width="12" height="14" viewBox="0 0 12 14" fill="none" xmlns="http://www.w3.org/2000/svg">
<path d="M10.4088 0H1.89251C1.64155 0 1.40086 0.0996945 1.22341 0.277152C1.04595 0.454609 0.946256 0.695293 0.946256 0.946256V2.83877H0V3.78502H0.946256V6.15066H0V7.09692H0.946256V9.46256H0V10.4088H0.946256V12.3013C0.946256 12.5523 1.04595 12.793 1.22341 12.9704C1.40086 13.1479 1.64155 13.2476 1.89251 13.2476H10.4088C10.6598 13.2476 10.9005 13.1479 11.0779 12.9704C11.2554 12.793 11.3551 12.5523 11.3551 12.3013V0.946256C11.3551 0.695293 11.2554 0.454609 11.0779 0.277152C10.9005 0.0996945 10.6598 0 10.4088 0ZM10.4088 12.3013H1.89251V10.4088H2.83877V9.46256H1.89251V7.09692H2.83877V6.15066H1.89251V3.78502H2.83877V2.83877H1.89251V0.946256H10.4088V12.3013Z" fill="black"/>
<path d="M4.73047 2.83936H8.51549V3.78561H4.73047V2.83936ZM4.73047 6.15125H8.51549V7.09751H4.73047V6.15125ZM4.73047 9.46315H8.51549V10.4094H4.73047V9.46315Z" fill="black"/>
</svg>
