<svg width="14" height="14" viewBox="0 0 14 14" fill="none" xmlns="http://www.w3.org/2000/svg">
<circle cx="6.67373" cy="6.67373" r="6.67373" fill="#D9D9D9"/>
<path d="M2.85938 10.4633C2.85938 9.6927 3.26116 8.95365 3.97634 8.40875C4.69152 7.86385 5.66152 7.55773 6.67293 7.55773C7.68435 7.55773 8.65435 7.86385 9.36953 8.40875C10.0847 8.95365 10.4865 9.6927 10.4865 10.4633H9.5331C9.5331 9.88535 9.23177 9.33106 8.69538 8.92239C8.15899 8.51371 7.4315 8.28412 6.67293 8.28412C5.91437 8.28412 5.18688 8.51371 4.65049 8.92239C4.1141 9.33106 3.81276 9.88535 3.81276 10.4633H2.85938ZM6.67293 7.19453C5.09269 7.19453 3.81276 6.21935 3.81276 5.01536C3.81276 3.81136 5.09269 2.83618 6.67293 2.83618C8.25318 2.83618 9.5331 3.81136 9.5331 5.01536C9.5331 6.21935 8.25318 7.19453 6.67293 7.19453ZM6.67293 6.46814C7.72643 6.46814 8.57971 5.81802 8.57971 5.01536C8.57971 4.21269 7.72643 3.56257 6.67293 3.56257C5.61944 3.56257 4.76615 4.21269 4.76615 5.01536C4.76615 5.81802 5.61944 6.46814 6.67293 6.46814Z" fill="#210030"/>
</svg>
